<svg xmlns="http://www.w3.org/2000/svg" viewBox="0 0 320 400" role="img" aria-labelledby="t d"><title id="t">Portrait placeholder for Inspector Maeve Quinn</title><desc id="d">A focused inspector with auburn hair before a midnight-blue rain pattern.</desc><rect width="320" height="400" fill="#14243a"/><path d="m35 40 45 75m35-75 45 75m35-75 45 75m35-75 45 75M35 150l45 75m35-75 45 75m35-75 45 75m35-75 45 75" stroke="#7594ad" opacity=".32" stroke-width="4"/><circle cx="160" cy="145" r="58" fill="#e2af8b"/><path d="M96 154q9-98 64-98t64 98q-25-31-64-31t-64 31" fill="#9e4537"/><path d="M68 365q25-129 92-129t92 129" fill="#263642"/><path d="M114 150h31m30 0h31" stroke="#233039" stroke-width="5"/><path d="M140 185q20 9 40 0" fill="none" stroke="#9c594f" stroke-width="3"/><rect x="18" y="18" width="284" height="364" fill="none" stroke="#b8c9bb"/></svg>
